<?xml version="1.0" encoding="utf-8"?>
<!-- Generator: Adobe Illustrator 23.0.3, SVG Export Plug-In . SVG Version: 6.00 Build 0)  -->
<svg version="1.1" id="Layer_1" xmlns="http://www.w3.org/2000/svg" xmlns:xlink="http://www.w3.org/1999/xlink" x="0px" y="0px"
	 viewBox="0 0 480 480" style="enable-background:new 0 0 480 480;" xml:space="preserve">
<style type="text/css">
	.st0{fill:#FFFFFF;}
	.st1{fill:#FFFFFF;stroke:#FFFFFF;stroke-miterlimit:10;}
</style>
<path class="st0" d="M328,0H152c-13.3,0-24,10.7-24,24v288c0,13.3,10.7,24,24,24h48v-16h-48c-4.4,0-8-3.6-8-8V24c0-4.4,3.6-8,8-8
	h176c4.4,0,8,3.6,8,8v288c0,4.4-3.6,8-8,8h-48v16h48c13.3,0,24-10.7,24-24V24C352,10.7,341.3,0,328,0z"/>
<path class="st0" d="M24,304h88v-16H24c-4.4,0-8-3.6-8-8V56c0-4.4,3.6-8,8-8h88V32H24C10.7,32,0,42.7,0,56v224
	C0,293.3,10.7,304,24,304z"/>
<path class="st0" d="M192,40h16v16h-16V40z"/>
<path class="st0" d="M224,40h64v16h-64V40z"/>
<path class="st0" d="M168,80h16v32h-16V80z"/>
<path class="st0" d="M200,80h16v32h-16V80z"/>
<path class="st0" d="M232,80h16v32h-16V80z"/>
<path class="st0" d="M264,80h16v32h-16V80z"/>
<path class="st0" d="M296,80h16v32h-16V80z"/>
<path class="st0" d="M232,136h56v16h-56V136z"/>
<path class="st0" d="M216,280h48c13.3,0,24-10.7,24-24s-10.7-24-24-24h-48c-13.3,0-24,10.7-24,24S202.7,280,216,280z M216,248h48
	c4.4,0,8,3.6,8,8s-3.6,8-8,8h-48c-4.4,0-8-3.6-8-8S211.6,248,216,248z"/>
<path class="st0" d="M88,64h24v16H88V64z"/>
<path class="st0" d="M32,104h16v24H32V104z"/>
<path class="st0" d="M64,104h16v24H64V104z"/>
<path class="st0" d="M96,104h16v24H96V104z"/>
<path class="st0" d="M56,64h16v16H56V64z"/>
<path class="st0" d="M64,264h48v-16H64c-4.4,0-8-3.6-8-8s3.6-8,8-8h48v-16H64c-13.3,0-24,10.7-24,24S50.7,264,64,264z"/>
<path class="st1" d="M456,32h-88v16h88c4.4,0,8,3.6,8,8v224c0,4.4-3.6,8-8,8h-88v16h88c13.3,0,24-10.7,24-24V56
	C480,42.7,469.3,32,456,32z"/>
<path class="st1" d="M368,64h56v16h-56V64z"/>
<path class="st1" d="M432,104h16v24h-16V104z"/>
<path class="st1" d="M400,104h16v24h-16V104z"/>
<path class="st0" d="M368,104h16v24h-16V104z"/>
<path class="st1" d="M368,216v16h48c4.4,0,8,3.6,8,8s-3.6,8-8,8h-48v16h48c13.3,0,24-10.7,24-24s-10.7-24-24-24H368z"/>
<path class="st0" d="M360,472v-87.1c0.1-11.9-8.3-22.3-20-24.5c-7-1.2-14.1,0.8-19.5,5.4c-0.2,0.1-0.3,0.3-0.5,0.4
	c-9.1-8.2-22.9-8.2-32,0c-6.6-5.7-15.7-7.5-24-4.8v-40.5c0.2-11.9-8.3-22.3-20-24.5c-7-1.2-14.1,0.8-19.5,5.3
	c-5.4,4.6-8.5,11.3-8.5,18.3v97.9l-21.2-12.7c-6.5-3.9-14.5-4.2-21.3-0.8l-1.3,0.6c-6.9,3.5-11.6,10.3-12.2,18.1s2.9,15.2,9.2,19.7
	l50.1,35.8c1.4,1,3,1.5,4.6,1.5h128C356.4,480,360,476.4,360,472z M344,464H226.6l-48-34.3c-1.7-1.2-2.7-3.3-2.6-5.5s1.4-4,3.4-5
	l1.3-0.6c1.9-0.9,4.1-0.9,5.9,0.2l33.4,20c2.5,1.5,5.6,1.5,8.1,0.1c2.5-1.4,4.1-4.1,4.1-7V320c0-2.4,1-4.6,2.9-6.1
	c1.8-1.5,4.2-2.2,6.5-1.7c4,1,6.8,4.6,6.6,8.7V384c0,4.4,3.6,8,8,8c4.4,0,8-3.6,8-8s3.6-8,8-8s8,3.6,8,8s3.6,8,8,8s8-3.6,8-8
	s3.6-8,8-8s8,3.6,8,8s3.6,8,8,8s8-3.6,8-8c0-2.4,1-4.6,2.9-6.1c1.8-1.5,4.2-2.2,6.5-1.7c4,1,6.8,4.6,6.6,8.7V464z"/>
<path class="st0" d="M192,136h24v16h-24V136z"/>
<path class="st0" d="M192,168h96v16h-96V168z"/>
<path class="st0" d="M208,200h64v16h-64V200z"/>
<path class="st0" d="M64,152h48v16H64V152z"/>
<path class="st0" d="M80,184h32v16H80V184z"/>
<path class="st0" d="M368,152h40v16h-40V152z"/>
<path class="st0" d="M368,184h24v16h-24V184z"/>
</svg>
